<?xml version="1.0" encoding="iso-8859-1"?>
<!-- Generator: Adobe Illustrator 19.0.0, SVG Export Plug-In . SVG Version: 6.00 Build 0)  -->
<svg version="1.1" id="Capa_1" xmlns="http://www.w3.org/2000/svg" xmlns:xlink="http://www.w3.org/1999/xlink" x="0px" y="0px"
	 viewBox="0 0 512 512" style="enable-background:new 0 0 512 512;" xml:space="preserve">
<g>
	<circle style="fill:#FFBF5D;" cx="256" cy="256" r="256"/>
	<rect x="8" y="93.6" style="fill:#FFBF5D;" width="496" height="340.8"/>
</g>
<g>
	<polyline style="fill:#FFFFFF;" points="504,434.4 256,189.6 8,434.4 	"/>
	<polyline style="fill:#FFFFFF;" points="8,93.6 256,338.4 504,93.6 	"/>
</g>
<polygon style="fill:#44C4A1;" points="85.6,125.6 426.4,125.6 256,293.6 "/>
<g>
	<path style="fill:#193651;" d="M504,85.6H8c-4.8,0-8,3.2-8,8v340.8c0,4.8,3.2,8,8,8h496c4.8,0,8-3.2,8-8V93.6
		C512,89.6,508.8,85.6,504,85.6z M256,327.2L27.2,101.6H484L256,327.2z M168.8,264L16,415.2V112.8L168.8,264z M180.8,275.2
		l69.6,68.8c1.6,1.6,3.2,2.4,5.6,2.4c2.4,0,4-0.8,5.6-2.4l69.6-68.8L484,426.4H27.2L180.8,275.2z M343.2,264L496,112.8v302.4
		L343.2,264z"/>
	<rect x="291.2" y="157.6" style="fill:#193651;" width="16" height="16"/>
	<rect x="248" y="157.6" style="fill:#193651;" width="16" height="16"/>
	<rect x="204.8" y="157.6" style="fill:#193651;" width="16" height="16"/>
	<rect x="291.2" y="381.6" style="fill:#193651;" width="16" height="16"/>
	<rect x="248" y="381.6" style="fill:#193651;" width="16" height="16"/>
	<rect x="204.8" y="381.6" style="fill:#193651;" width="16" height="16"/>
</g>
<g>
</g>
<g>
</g>
<g>
</g>
<g>
</g>
<g>
</g>
<g>
</g>
<g>
</g>
<g>
</g>
<g>
</g>
<g>
</g>
<g>
</g>
<g>
</g>
<g>
</g>
<g>
</g>
<g>
</g>
</svg>
