<?xml version="1.0" encoding="iso-8859-1"?>
<!-- Generator: Adobe Illustrator 19.0.0, SVG Export Plug-In . SVG Version: 6.00 Build 0)  -->
<svg version="1.1" id="Capa_1" xmlns="http://www.w3.org/2000/svg" xmlns:xlink="http://www.w3.org/1999/xlink" x="0px" y="0px"
	 viewBox="0 0 512.2 512.2" style="enable-background:new 0 0 512.2 512.2;" xml:space="preserve">
<path style="fill:#fff159;" d="M256.191,9L256.191,9c-136.8,0-248,111.2-248,248l0,0c0,136.8,111.2,248,248,248l0,0
	c136.8,0,248-111.2,248-248l0,0C504.191,120.2,392.991,9,256.191,9z"/>
<path style="fill:#FFFFFF;" d="M374.591,341l-24,24c-20.8,20.8-53.6,20.8-74.4,0l-128-128c-20.8-20.8-20.8-53.6,0-74.4l24-24
	c15.2-15.2,15.2-40,0-55.2l-63.2-63.2c-15.2-15.2-40-15.2-55.2,0l-19.2,30.4c-43.2,70.4-32.8,160.8,25.6,219.2l183.2,183.2
	c58.4,58.4,149.6,68.8,219.2,25.6l29.6-18.4c15.2-15.2,15.2-40,0-55.2l-63.2-63.2C414.591,325.8,389.791,325.8,374.591,341z"/>
<g>
	<path style="fill:gold;" d="M469.791,473.8l23.2-14.4c15.2-15.2,15.2-40,0-55.2l-63.2-63.2c-15.2-15.2-40-15.2-55.2,0
		l-18.4,18.4"/>
	<path style="fill:gold;" d="M152.991,157.8l18.4-18.4c15.2-15.2,15.2-40,0-55.2l-63.2-63.2c-15.2-15.2-40-15.2-55.2,0
		l-13.6,22.4"/>
</g>
<g>
	<path style="fill:#193651;" d="M496.191,259.4h16c0-142.4-116-258.4-258.4-258.4v16C387.391,17,496.191,125.8,496.191,259.4z"/>
	<path style="fill:#193651;" d="M253.791,93c91.2,0,165.6,74.4,165.6,165.6h16c0-100-81.6-181.6-181.6-181.6V93z"/>
	<path style="fill:#193651;" d="M253.791,169.8c49.6,0,89.6,40,89.6,89.6h16c0-58.4-47.2-105.6-105.6-105.6V169.8z"/>
	
		<rect x="137.512" y="288.214" transform="matrix(-0.7071 0.7071 -0.7071 -0.7071 457.8601 402.7765)" style="fill:#193651;" width="16" height="16"/>
	
		<rect x="173.162" y="324.308" transform="matrix(-0.7071 0.7071 -0.7071 -0.7071 544.2397 439.1842)" style="fill:#193651;" width="16" height="16"/>
	
		<rect x="208.803" y="359.198" transform="matrix(-0.7071 0.7071 -0.7071 -0.7071 629.7548 473.5433)" style="fill:#193651;" width="16" height="16"/>
	<path style="fill:#193651;" d="M177.791,144.2c8.8-8.8,13.6-20.8,13.6-33.6s-4.8-24-13.6-33.6l-63.2-63.2
		c-18.4-18.4-48-18.4-66.4,0l-20,32c-45.6,73.6-35.2,168,26.4,228.8l183.2,183.2c36,36,83.2,54.4,131.2,54.4c33.6,0,68-9.6,98.4-28
		l29.6-18.4l1.6-0.8c8.8-8.8,13.6-20.8,13.6-33.6c0-12.8-4.8-24-13.6-33.6l-63.2-63.2c-18.4-18.4-48-18.4-66.4,0l-24,24
		c-17.6,17.6-45.6,17.6-63.2,0l-128-128c-8-8-12.8-19.2-12.8-31.2s4.8-23.2,12.8-31.2L177.791,144.2z M124.991,200.2
		c0,16,6.4,31.2,17.6,42.4l128,128c23.2,23.2,61.6,23.2,85.6,0l24-24c12-12,32-12,44,0l63.2,63.2c5.6,5.6,8.8,13.6,8.8,21.6
		s-3.2,15.2-8.8,21.6l-28.8,17.6c-67.2,41.6-153.6,32-209.6-24l-183.2-182.4c-56-56-65.6-142.4-24-209.6l17.6-28.8
		c12-11.2,31.2-11.2,43.2,0.8l63.2,63.2c5.6,5.6,8.8,13.6,8.8,21.6s-3.2,16-8.8,21.6l-24,24
		C131.391,168.2,124.991,183.4,124.991,200.2z"/>
</g>
<g>
</g>
<g>
</g>
<g>
</g>
<g>
</g>
<g>
</g>
<g>
</g>
<g>
</g>
<g>
</g>
<g>
</g>
<g>
</g>
<g>
</g>
<g>
</g>
<g>
</g>
<g>
</g>
<g>
</g>
</svg>
